# xmcd
#
# Track frame offsets: 
#        150
#        16415
#        30754
#        44350
#        53399
#        65888
#        84375
#        120158
#        148453
#
# Disc length: 2228 seconds
#
# Revision: 6
# Processed by: cddbd v1.5.2PL0 Copyright (c) Steve Scherf et al.
# Submitted via: ExactAudioCopy v1.3
#
DISCID=6d08b209
DTITLE=Breakout - Blues
DYEAR=1971
DGENRE=Blues
TTITLE0=Ona poszla inna droga
TTITLE1=Kiedy bylem malym chlopcem
TTITLE2=Oni zaraz przyjda tu
TTITLE3=Przyszla do mnie bieda
TTITLE4=Pomaluj moje sny
TTITLE5=Usta me ogrzej
TTITLE6=Gdybym byl wichrem
TTITLE7=Co sie stalo kwiatom
TTITLE8=Dzisiejszej nocy
EXTD=
EXTT0=
EXTT1=
EXTT2=
EXTT3=
EXTT4=
EXTT5=
EXTT6=
EXTT7=
EXTT8=
PLAYORDER=
